# xmcd CD database file
#
# Track frame offsets:
#	150
#	25802
#	45000
#	64686
#	78564
#	106527
#	132896
#	145267
#	164673
#	206007
#	221988
#	245775
#	295765
#
# Disc length: 4309 seconds
#
# Revision: 0
# Processed by: cddbd v1.5.2PL0 Copyright (c) Steve Scherf et al.
# Submitted via: CDex 1.51
#
DISCID=bc10d30d
DTITLE=Roman Andren - Juanita
DYEAR=2007
DGENRE=Jazz
TTITLE0=Let's live forever, love
TTITLE1=Bumblebee
TTITLE2=Juanita
TTITLE3=O sapo - The frog
TTITLE4=It's nice
TTITLE5=Long ago and far, far away
TTITLE6=Til another day
TTITLE7=If tomorrow will come(I don,t know)
TTITLE8=O mundo e seu - The world is yours
TTITLE9=You never told me
TTITLE10=Vasto como o ceu - Vast as the sky
TTITLE11=Vento do varao - Summer breeze
TTITLE12=Love has a name
EXTD=YEAR: 2007
EXTT0=
EXTT1=
EXTT2=
EXTT3=
EXTT4=
EXTT5=
EXTT6=
EXTT7=
EXTT8=
EXTT9=
EXTT10=
EXTT11=
EXTT12=
PLAYORDER=
